<svg xmlns="http://www.w3.org/2000/svg" width="419.929" height="325.004" viewBox="0 0 419.929 325.004"><defs><style>.a{fill:#3f3d56;}.b{fill:#e7305b;}.c{fill:#e6e6e6;}.d{fill:#fff;}.e{fill:#2f2e41;}.f{fill:#ffb9b9;}.g{fill:#d0cde1;}.h{opacity:0.15;}</style></defs><g transform="translate(0 0)"><ellipse class="a" cx="22.36" cy="45.623" rx="22.36" ry="45.623" transform="translate(299.104 204.594)"/><path class="b" d="M835.228,705.309c8.955-53.73.09-107.267,0-107.8l-1.742.3c.09.531,8.9,53.786,0,107.215Z" transform="translate(-515.83 -380.415)"/><rect class="b" width="1.767" height="22.93" transform="translate(300.942 241.966) rotate(-61.858)"/><rect class="b" width="22.931" height="1.767" transform="translate(322.285 256.647) rotate(-28.158)"/><ellipse class="c" cx="43.733" cy="89.233" rx="43.733" ry="89.233" transform="translate(331.454 88.779)"/><path class="b" d="M945.679,583.075c17.492-104.951.176-209.521,0-210.565l-1.742.3c.177,1.041,17.441,105.329,0,209.98Z" transform="translate(-575.363 -259.14)"/><rect class="b" width="1.767" height="44.849" transform="translate(335.45 161.129) rotate(-61.858)"/><rect class="b" width="44.849" height="1.767" transform="translate(377.194 191.327) rotate(-28.158)"/><path class="c" d="M462.208,650.47H229.589a3.231,3.231,0,0,1-3.227-3.227V500.255a3.231,3.231,0,0,1,3.227-3.227H462.208a3.231,3.231,0,0,1,3.227,3.227V647.243A3.231,3.231,0,0,1,462.208,650.47Z" transform="translate(-188.591 -326.256)"/><path class="d" d="M278.149,535.666a1.385,1.385,0,0,0-1.383,1.383V652.1a1.384,1.384,0,0,0,1.383,1.383H467.983a1.384,1.384,0,0,0,1.383-1.383V537.049a1.385,1.385,0,0,0-1.383-1.383Z" transform="translate(-215.758 -347.081)"/><rect class="c" width="195.719" height="7.291" transform="translate(58.35 210.927)"/><rect class="c" width="195.719" height="7.291" transform="translate(58.35 246.57)"/><rect class="c" width="81.817" height="7.291" transform="translate(87.486 227.128)"/><rect class="c" width="195.719" height="7.291" transform="translate(58.35 284.238)"/><rect class="c" width="7.291" height="100.571" transform="translate(83.84 188.124)"/><rect class="c" width="7.291" height="62.497" transform="translate(219.932 188.124)"/><rect class="c" width="7.291" height="118.74" transform="translate(164.847 188.124)"/><rect class="c" width="7.291" height="59.079" transform="translate(123.129 247.785)"/><circle class="b" cx="9.316" cy="9.316" r="9.316" transform="translate(159.177 241.822)"/><path class="a" d="M419.747,703.82H0v-1.006H419.929Z" transform="translate(0 -378.816)"/><circle class="b" cx="57.466" cy="57.466" r="57.466" transform="translate(112.143 80.865)"/><path class="b" d="M326.681,429.68l-18.155-31.013-18.155-31.013,35.936-.216,35.936-.216-17.781,31.23Z" transform="translate(-156.51 -197.932)"/><circle class="d" cx="20.618" cy="20.618" r="20.618" transform="translate(149.453 117.351)"/><path class="e" d="M488.638,126.884s-12.3-3.464-15.934,13.336-.866,25.286-.866,25.286l27.451-3.2S507.083,131.993,488.638,126.884Z" transform="translate(-320.358 -126.589)"/><path class="f" d="M451.773,285.065s-18.037,1.8-14.824,9.078,3.213,7.924,3.213,7.924l15.849,28.271,5.14-5.354s-5.783-12.636-5.783-16.706-6-11.137-6-11.137l10.495-.857Z" transform="translate(-301.89 -212.008)"/><path class="f" d="M561.248,302.827l6,13.065s4.5,4.5,9.424,22.488,6,17.348,6,17.348l-7.5,1.5s-8.353-19.49-11.137-20.989-6.211-15.206-6.211-15.206l-9.852-12.422,3-6.639Z" transform="translate(-361.936 -221.12)"/><path class="e" d="M508.892,265.8l9.209,17.134s-11.565-5.354-13.279,6.425l-10.495-8.139s-14.564,4.712-23.345,3c0,0,2.57-8.139-6.639-11.78l20.775-2.57-.857-4.5,2.142-4.284Z" transform="translate(-316.862 -199.083)"/><path class="e" d="M476.235,367.759s-5.783-.857-4.283,4.284l3,10.28s-3.855,10.495,2.142,8.139,9.852-16.92,9.852-16.92,2.57-11.137,0-11.137-10.709-1.713-9.852,0S476.235,367.759,476.235,367.759Z" transform="translate(-320.829 -253.283)"/><path class="e" d="M609.512,411.364s-7.5-1.928-9.21,1.071-1.285,12.851-1.285,13.065,2.57,2.356,3.427,2.356,6.211,9.638,13.493,6.211S609.512,411.364,609.512,411.364Z" transform="translate(-389.426 -279.754)"/><circle class="f" cx="8.353" cy="8.353" r="8.353" transform="translate(156.531 25.004) rotate(-80.783)"/><path class="f" d="M509.223,169.563s1.713,9,3.213,10.28-11.351,3.213-11.351,3.213,1.928-6.211-.428-9.424S509.223,169.563,509.223,169.563Z" transform="translate(-336.256 -149.752)"/><path class="g" d="M520.548,228.3a75.736,75.736,0,0,1-9.336-1.381c-3.6-.673-7.545-1.471-10.655-2.118-3.33-.694-5.71-1.212-5.71-1.212s-.857,5.354-3.641,4.712c-2.4-.553-9.567-25.592-11.505-32.512a2.407,2.407,0,0,1,1.064-2.705l9.846-6.012,2.523.964s4.262-3.294,6.736-3.36,6.757-.709,6.757-.709,4.926.428,5.783,4.069,1.285,26.343,4.5,30.413S524.617,228.3,520.548,228.3Z" transform="translate(-325.091 -157.515)"/><path class="f" d="M503.368,303.9s0,8.353,5.569,7.068.428-9,.428-9Z" transform="translate(-337.897 -221.119)"/><path class="f" d="M527.693,305.756s-1.927,9.852-6,8.353,0-10.28,0-10.28Z" transform="translate(-346.801 -222.121)"/><path class="h" d="M539.468,236.085s-2.1,5-3.767,9.113c-3.6-.673-7.545-1.471-10.655-2.118a6.133,6.133,0,0,1,.929-1.641c1.5-1.713.643-2.142.643-2.142-1.285-2.57-.214-6-.214-6-2.57-6.854,1.285-15.421,1.285-15.421Z" transform="translate(-349.581 -175.795)"/><path class="g" d="M525.913,210.872s-3.855,8.567-1.285,15.421c0,0-1.071,3.427.214,6,0,0,.857.428-.643,2.142s-2.784,7.71-1.713,9-1.5,3.641-.857,4.926-1.071,3-1.071,3,6.425,1.285,7.5,3.213a3.465,3.465,0,0,0,.643-3.213,3.162,3.162,0,0,1,.428-3.427c.643-1.071,2.57-3.427,2.784-4.5s5.783-14.35,5.783-14.35l-2.612-24.2Z" transform="translate(-347.162 -168.787)"/><path class="g" d="M481.076,204.872l-.4.073a2.407,2.407,0,0,0-1.978,2.386c.015,2.15.136,5.967.665,11.248.857,8.567,3.855,21.417,4.5,22.7a68.352,68.352,0,0,0,3.427,6.639c1.928,3.213,2.356,2.142,1.928,3.641a2.256,2.256,0,0,0,.643,2.356s3.855-4.283,7.71-1.928a4.772,4.772,0,0,0,.428-1.928c0-1.071.643-2.142-.428-2.784s.643-3.427-1.071-4.926-1.928-1.285-1.713-2.784a6.378,6.378,0,0,0-.428-3Z" transform="translate(-324.599 -168.784)"/><path class="e" d="M495.944,142.572s-3.464,9.179-11.95,12.989l-1.385-8.14Z" transform="translate(-326.707 -135.204)"/><ellipse class="f" cx="1.178" cy="2.249" rx="1.178" ry="2.249" transform="translate(173.075 12.636)"/></g></svg>
