<svg xmlns="http://www.w3.org/2000/svg" width="465.613" height="339.506" viewBox="0 0 465.613 339.506"><defs><style>.a{fill:#e6e6e6;}.b{fill:#fff;}.c{fill:#e7305b;}.d{opacity:0.1;}.e{opacity:0.05;}.f{fill:#ffb8b8;}.g{fill:#2f2e41;}.h{fill:#575a89;}</style></defs><rect class="a" width="342.294" height="219.22" transform="translate(0.146 0.194)"/><rect class="b" width="322.718" height="178.755" transform="translate(9.934 27.69)"/><rect class="c" width="342.294" height="14.542"/><circle class="b" cx="2.695" cy="2.695" r="2.695" transform="translate(8.111 4.739)"/><circle class="b" cx="2.695" cy="2.695" r="2.695" transform="translate(18.342 4.739)"/><circle class="b" cx="2.695" cy="2.695" r="2.695" transform="translate(28.572 4.739)"/><rect class="a" width="63.119" height="68.479" transform="translate(49.641 42.392)"/><rect class="a" width="63.119" height="68.479" transform="translate(139.733 42.392)"/><rect class="a" width="63.119" height="68.479" transform="translate(229.825 42.392)"/><rect class="a" width="63.119" height="68.479" transform="translate(49.641 123.266)"/><rect class="a" width="63.119" height="68.479" transform="translate(139.733 123.266)"/><rect class="a" width="63.119" height="68.479" transform="translate(229.825 123.266)"/><path class="a" d="M541.263,568.032l-42.7,8.739-.973-.1-37.522-3.787v-47.55L506,517.569l33.32,3.886.012.211v.1Z" transform="translate(-215.812 -242.784)"/><path class="d" d="M574.415,571.651l-42.7,8.739-.973-.1V531.545l41.743-6.26Z" transform="translate(-248.964 -246.403)"/><path class="e" d="M539.336,521.765l-.012.012-41.73,6.149-37.522-2.591L506,517.569l33.32,3.886.012.211Z" transform="translate(-215.812 -242.784)"/><rect class="b" width="26.015" height="12.211" transform="matrix(0.998, 0.065, -0.065, 0.998, 249.424, 299.148)"/><rect class="c" width="13.804" height="4.247" transform="matrix(0.998, 0.065, -0.065, 0.998, 255.257, 303.519)"/><path class="c" d="M650.263,568.032l-42.7,8.739-.973-.1-37.522-3.787v-47.55L615,517.569l33.32,3.886.012.211v.1Z" transform="translate(-266.943 -242.784)"/><path class="d" d="M683.415,571.651l-42.7,8.739-.973-.1V531.545l41.743-6.26Z" transform="translate(-300.095 -246.403)"/><path class="e" d="M648.336,521.765l-.012.012-41.73,6.149-37.522-2.591L615,517.569l33.32,3.886.012.211Z" transform="translate(-266.943 -242.784)"/><rect class="b" width="26.015" height="12.211" transform="matrix(0.998, 0.065, -0.065, 0.998, 307.294, 299.148)"/><rect class="c" width="13.804" height="4.247" transform="matrix(0.998, 0.065, -0.065, 0.998, 313.127, 303.519)"/><path class="f" d="M933.359,295.884s7.533,19.461-6.278,19.461,21.345,19.461,35.156,8.161,5.65-11.928,5.65-11.928-18.206,1.883-17.578-14.439Z" transform="translate(-519.142 -207.953)"/><circle class="g" cx="22.203" cy="22.203" r="22.203" transform="translate(401.828 49.383)"/><path class="g" d="M906.007,448.422l-23.856,61.523s-11.928,18.834-7.533,37.667,16.471,53.111,16.471,53.111,9.122,2.321,8.495-5.84.391-47.728-9.026-58.4l38.05-43.488,1.256,49.6s-2.511,22.6-1.883,32.645,1.883,26.995,1.883,26.995l7.533-1.256s10.163-46.24,8.907-61.306c0,0,23.325-73.208-.531-90.786Z" transform="translate(-495.557 -279.507)"/><path class="g" d="M905.649,729.229s-3.072-.782-3.425,2.035-6.815,15.345-.069,15.972,9.079-5.683,10.208-10.12,1.558-4.691,2.5-5.541,3.189-5.507.371-5.861a6.235,6.235,0,0,1-4.261-3.125S910.085,730.359,905.649,729.229Z" transform="translate(-507.495 -408.114)"/><path class="g" d="M983.87,730.661s-5.7-.814-5.29,1.221-.814,10.579,0,11.393,2.441,2.441,2.441,3.662.407,5.29,7.324,4.069,5.29-7.324,4.883-8.138-5.29-4.883-4.883-7.324S986.311,729.034,983.87,730.661Z" transform="translate(-544.646 -411.725)"/><circle class="f" cx="15.378" cy="15.378" r="15.378" transform="translate(408.926 65.467)"/><path class="h" d="M950.432,321.995s5.364,10.612-10.8,10.913c-4.97.093-10.881-3.53-13.321-7.861-1.438-2.552-1.8.972-4.125.714-4.4-.489-9.1,1.337-13.313,3.575a2.655,2.655,0,0,0-1.3,3.114c3.191,10.589,12.3,61.523,13.712,64.3,3.593,7.082,42.473-4.778,42.473-4.778.533-19.269-6.461-46.227,5.84-65.833a23.431,23.431,0,0,0-19.165-4.14Z" transform="translate(-511.418 -219.939)"/><path class="g" d="M799.736,124.788l-11.268-5.9-15.56,2.414-3.219,14.218,8.014-.308,2.238-5.224v5.138l3.7-.142,2.146-8.316,1.342,8.853,13.144-.269Z" transform="translate(-361.05 -55.768)"/><circle class="g" cx="8.959" cy="8.959" r="8.959" transform="translate(416.24 37.308)"/><path class="g" d="M938.7,204.357a8.961,8.961,0,0,1,7.6-8.856,8.959,8.959,0,1,0,0,17.712A8.961,8.961,0,0,1,938.7,204.357Z" transform="translate(-524.798 -160.817)"/><path class="a" d="M805.263,439.032l-42.7,8.739-.973-.1-37.522-3.787v-47.55L770,388.569l33.32,3.886.012.211v.1Z" transform="translate(-339.651 -182.272)"/><path class="d" d="M838.415,442.651l-42.7,8.739-.973-.1V402.545l41.743-6.26Z" transform="translate(-372.803 -185.891)"/><path class="e" d="M803.336,392.765l-.012.012-41.73,6.148-37.522-2.591L770,388.569l33.32,3.886.012.211Z" transform="translate(-339.651 -182.272)"/><rect class="b" width="26.015" height="12.211" transform="matrix(0.998, 0.065, -0.065, 0.998, 389.586, 230.66)"/><rect class="c" width="13.804" height="4.247" transform="matrix(0.998, 0.065, -0.065, 0.998, 395.42, 235.031)"/><path class="f" d="M903.9,510.457s-15.695,12.556-8.789,16.95,15.067-16.95,15.067-16.95Z" transform="translate(-504.804 -308.606)"/><path class="h" d="M905.921,335.195c-.813-.916-11.079,4.319-9.557,11.149l.716,47.323s-3.767,38.923,5.65,38.923,8.306,1.309,9.561-1.83,1.593-29.731,1.593-29.731Z" transform="translate(-506.141 -226.344)"/><path class="f" d="M1005.95,502.457s8.161,21.345,15.067,16.95-8.789-16.95-8.789-16.95Z" transform="translate(-557.619 -304.853)"/><path class="h" d="M1004.809,393.559s-3.91,26.061-2.655,29.2.144,1.83,9.561,1.83,5.65-38.923,5.65-38.923l.716-47.323c1.522-6.83-8.744-12.065-9.557-11.149L999.5,357.988Z" transform="translate(-554.593 -222.592)"/></svg>