<svg xmlns="http://www.w3.org/2000/svg" width="276.375" height="243.738" viewBox="0 0 276.375 243.738"><defs><style>.a{fill:#e7305b;}.b{fill:#fff;}.c{fill:#e6e6e6;}.d{opacity:0.2;}.e{fill:#ffb8b8;}.f{fill:#575a89;}.g{fill:#2f2e41;}.h{fill:#3f3d56;}</style></defs><g transform="translate(-140.735 -104.347)"><path class="a" d="M916.624,683.432l-32.094-22.7c10.824-10.544,20.669-25.558,30.084-42.534l32.094,22.7C933.883,655.462,923.019,669.756,916.624,683.432Z" transform="translate(-542.325 -365.15)"/><circle class="b" cx="9.472" cy="9.472" r="9.472" transform="translate(364.835 275.169)"/><path class="c" d="M618.758,536.554h-3.523a.467.467,0,0,0-.467.467v1.546a.467.467,0,0,0,.467.467h.584v2.317h2.355v-2.317h.584a.467.467,0,0,0,.467-.467v-1.546a.467.467,0,0,0-.467-.467Z" transform="translate(-399.276 -321.855)"/><path class="a" d="M618.625,553.375a18.112,18.112,0,0,1-3.151-10.738.382.382,0,0,0-.3-.381v-.668h-3.721v.659H611.4a.382.382,0,0,0-.381.382c0,.009,0,.019,0,.028a16.529,16.529,0,0,1-2.969,10.993,1.051,1.051,0,0,0-.19.638l.407,12.584a1.089,1.089,0,0,0,1.08,1.051h8.416a1.09,1.09,0,0,0,1.081-1.07L619,554.634A2.206,2.206,0,0,0,618.625,553.375Z" transform="translate(-395.614 -324.525)"/><path class="d" d="M619.424,537.627a1.008,1.008,0,0,1-2.015,0" transform="translate(-400.676 -322.424)"/><rect class="b" width="7.104" height="4.736" transform="translate(214.268 231.275)"/><path class="c" d="M852.17,641.218h-6.594a.874.874,0,0,0-.874.874v2.895a.874.874,0,0,0,.874.874h1.093V650.2h4.409v-4.337h1.093a.874.874,0,0,0,.874-.874v-2.895a.874.874,0,0,0-.874-.874Z" transform="translate(-521.205 -377.357)"/><path class="a" d="M851.922,672.7a33.9,33.9,0,0,1-5.9-20.1.715.715,0,0,0-.558-.714V650.64H838.5v1.233h-.1a.715.715,0,0,0-.714.716q0,.026,0,.052a30.941,30.941,0,0,1-5.558,20.577,1.97,1.97,0,0,0-.356,1.194l.762,23.557a2.039,2.039,0,0,0,2.022,1.968h15.753a2.04,2.04,0,0,0,2.023-2l.294-22.872A4.129,4.129,0,0,0,851.922,672.7Z" transform="translate(-514.352 -382.353)"/><path class="d" d="M853.417,643.226a1.886,1.886,0,1,1-3.773,0" transform="translate(-523.826 -378.422)"/><path class="b" d="M852.286,714.273H838.575a1.408,1.408,0,0,0-1.391,1.622l2.072,13.468h11.9l2.517-13.423a1.408,1.408,0,0,0-1.384-1.667Z" transform="translate(-517.21 -416.096)"/><path class="a" d="M776.168,698.182h-39.31c2.748-14.859,2.116-32.8,0-52.1h39.31C774.108,665.381,773.493,683.323,776.168,698.182Z" transform="translate(-464.018 -379.938)"/><circle class="b" cx="9.472" cy="9.472" r="9.472" transform="translate(283.26 281.302)"/><path class="e" d="M322.243,305.824l8.825-.8,5.616-13.638-10.028-5.616Z" transform="translate(-170.879 -151.537)"/><path class="e" d="M628.035,479.03h0a4.976,4.976,0,0,0-4.322-6.819l-13.7-.817-2.017,6.709,14.105,3.874A4.976,4.976,0,0,0,628.035,479.03Z" transform="translate(-395.683 -287.302)"/><path class="f" d="M543.147,441.142,543,428.553,512.562,423.7l-23.446-26.89a7.674,7.674,0,0,0-10-1.368h0a7.674,7.674,0,0,0-1.337,11.706l19.343,23.8Z" transform="translate(-325.508 -246.355)"/><path class="g" d="M463.726,642.583h8.022l19.9-89.967,20.615,27.793L524.3,640.577h7.621L530.312,576,503.437,507H476.963c-7.235,13.093-12.91,26.59-6.418,40.514Z" transform="translate(-319.181 -306.185)"/><path class="g" d="M582.1,796.807a2.094,2.094,0,0,0,1.633,2.686l19.631,3.484a3.23,3.23,0,0,0,3.664-2.214h0a3.21,3.21,0,0,0-1.57-3.817,30.016,30.016,0,0,1-10.826-9.412c-2.158,2.009-4.569,1.82-7.13.339l-2.716.34Z" transform="translate(-381.9 -454.945)"/><path class="g" d="M455.71,796.807a2.094,2.094,0,0,0,1.633,2.686l19.631,3.484a3.23,3.23,0,0,0,3.664-2.214h0a3.21,3.21,0,0,0-1.57-3.817,30.016,30.016,0,0,1-10.826-9.412c-2.158,2.009-4.569,1.82-7.13.339l-2.716.34Z" transform="translate(-314.88 -454.945)"/><circle class="e" cx="11.231" cy="11.231" r="11.231" transform="translate(154.774 122.398)"/><path class="f" d="M477.933,447.519l29.282-.8-8.6-27.065c5.344-8.567-.034-17.126-7.646-25.683l-6.017-4.011-9.627-.8h0a23.633,23.633,0,0,0-6.364,16.464A106.058,106.058,0,0,0,477.933,447.519Z" transform="translate(-321.956 -243.693)"/><path class="e" d="M610.9,536.262h0a4.976,4.976,0,0,0-1.291-7.969l-12.275-6.142-4.494,5.374,11.444,9.11A4.976,4.976,0,0,0,610.9,536.262Z" transform="translate(-387.649 -314.218)"/><path class="f" d="M546.636,469.848l4.813-11.633-26.07-16.437L514.4,407.832a7.674,7.674,0,0,0-8.658-5.192h0a7.674,7.674,0,0,0-5.834,10.236l8.419,29.494Z" transform="translate(-338.112 -250.779)"/><path class="g" d="M470.13,339.462c0,4.37,2.838,11.138,6.418,14.039,2.409,1.952,5.592,1.87,6.819-.8A31.79,31.79,0,0,1,496.6,339.462c10.182-5.4-3.611-14.647-13.237-13.237C476.133,327.284,470.13,332.151,470.13,339.462Z" transform="translate(-322.577 -210.246)"/><circle class="g" cx="8.022" cy="8.022" r="8.022" transform="translate(146.35 107.155)"/><path class="g" d="M495.911,309.646a8.017,8.017,0,0,0-7.421-7.992c.2-.015.4-.03.6-.03a8.022,8.022,0,0,1,0,16.045c-.2,0-.4-.016-.6-.03a8.017,8.017,0,0,0,7.421-7.992Z" transform="translate(-332.313 -197.277)"/><ellipse class="e" cx="1.805" cy="2.407" rx="1.805" ry="2.407" transform="translate(164.401 132.827)"/><path class="h" d="M641.43,537.378H516.544L490.1,412.361h-22.57v-5.609h27.116l26.446,125.016H641.43Z" transform="translate(-247.921 -215.693)"/><circle class="h" cx="12.021" cy="12.021" r="12.021" transform="translate(274.903 320.483)"/><circle class="h" cx="12.021" cy="12.021" r="12.021" transform="translate(364.658 320.483)"/><path class="h" d="M827.529,639.091H706.022L684.584,533.145H847.648a5.761,5.761,0,0,1,5.691,6.654l-20.12,94.425a5.732,5.732,0,0,1-5.69,4.866Zm-120.187-1.6H827.529a4.136,4.136,0,0,0,4.106-3.512l20.12-94.425a4.157,4.157,0,0,0-4.107-4.8H686.53Z" transform="translate(-436.298 -320.048)"/><path class="h" d="M608.663,560.033l-14.04-104.675,1.581-.261,14.04,104.675Z" transform="translate(-315.317 -241.329)"/><path class="h" d="M788.925,559.232l-1.582-.256L800.973,455.1l1.582.256Z" transform="translate(-417.513 -241.332)"/><rect class="h" width="1.603" height="104.675" transform="translate(332.615 213.898)"/><rect class="h" width="1.603" height="155.146" transform="translate(256.469 243.548) rotate(-89.861)"/><rect class="h" width="136.302" height="1.603" transform="translate(264.375 292.39) rotate(-0.392)"/><ellipse class="h" cx="8.815" cy="4.808" rx="8.815" ry="4.808" transform="translate(213.197 188.254)"/></g></svg>